<svg xmlns="http://www.w3.org/2000/svg" width="392" height="260" viewBox="0 0 392 260" role="img" aria-label="what_the_rent">
<rect x="0.5" y="0.5" width="391" height="259" rx="10" fill="#0e0e0e" stroke="#262626"/>
<text x="20" y="26" font-family="ui-monospace, SFMono-Regular, Menlo, Consolas, 'Liberation Mono', monospace" font-size="12" font-weight="bold" fill="#e5e5e5" text-anchor="start" >// what_the_rent</text>
<defs><radialGradient id="grent" cx="196" cy="260" r="200" gradientUnits="userSpaceOnUse"><stop offset="0" stop-color="#3b82f6" stop-opacity="0.1"/><stop offset="1" stop-color="#3b82f6" stop-opacity="0"/></radialGradient></defs><rect x="1" y="1" width="100%" height="100%" rx="10" fill="url(#grent)"/>
<text x="20" y="54" font-family="ui-monospace, SFMono-Regular, Menlo, Consolas, 'Liberation Mono', monospace" font-size="12" font-weight="normal" fill="#8a8a8a" text-anchor="start" >Chrome extensions for StreetEasy and Zillow</text>
<text x="20" y="72" font-family="ui-monospace, SFMono-Regular, Menlo, Consolas, 'Liberation Mono', monospace" font-size="12" font-weight="normal" fill="#8a8a8a" text-anchor="start" >that surface the hidden costs of a rental in</text>
<text x="20" y="90" font-family="ui-monospace, SFMono-Regular, Menlo, Consolas, 'Liberation Mono', monospace" font-size="12" font-weight="normal" fill="#8a8a8a" text-anchor="start" >NYC and SF: utilities, transit, safety. Safe</text>
<text x="20" y="108" font-family="ui-monospace, SFMono-Regular, Menlo, Consolas, 'Liberation Mono', monospace" font-size="12" font-weight="normal" fill="#8a8a8a" text-anchor="start" >route mapping from public building and 311</text>
<text x="20" y="126" font-family="ui-monospace, SFMono-Regular, Menlo, Consolas, 'Liberation Mono', monospace" font-size="12" font-weight="normal" fill="#8a8a8a" text-anchor="start" >data.</text>
<defs><linearGradient id="sp" x1="0" y1="0" x2="0" y2="1"><stop offset="0" stop-color="#3b82f6" stop-opacity="0.35"/><stop offset="1" stop-color="#3b82f6" stop-opacity="0"/></linearGradient></defs><path d="M232.0,167.2 L237.2,164.8 L242.4,160.3 L247.6,160.3 L252.7,158.5 L257.9,171.3 L263.1,175.2 L268.3,174.9 L273.5,166.2 L278.7,160.1 L283.9,171.7 L289.0,174.2 L294.2,183.4 L299.4,177.4 L304.6,175.9 L309.8,179.2 L315.0,183.7 L320.1,187.9 L325.3,175.2 L330.5,167.5 L335.7,169.2 L340.9,170.9 L346.1,179.7 L351.3,173.3 L356.4,182.6 L361.6,184.6 L366.8,181.0 L372.0,170.6 L372,210 L232,210 Z" fill="url(#sp)"/><path d="M232.0,167.2 L237.2,164.8 L242.4,160.3 L247.6,160.3 L252.7,158.5 L257.9,171.3 L263.1,175.2 L268.3,174.9 L273.5,166.2 L278.7,160.1 L283.9,171.7 L289.0,174.2 L294.2,183.4 L299.4,177.4 L304.6,175.9 L309.8,179.2 L315.0,183.7 L320.1,187.9 L325.3,175.2 L330.5,167.5 L335.7,169.2 L340.9,170.9 L346.1,179.7 L351.3,173.3 L356.4,182.6 L361.6,184.6 L366.8,181.0 L372.0,170.6" fill="none" stroke="#3b82f6" stroke-opacity="0.8" stroke-width="1.5"/>
<rect x="20" y="224" width="63" height="22" rx="4" fill="#0a0a0a" stroke="#262626"/><text x="51.5" y="239" font-family="ui-monospace, SFMono-Regular, Menlo, Consolas, 'Liberation Mono', monospace" font-size="11" font-weight="bold" fill="#e5e5e5" text-anchor="middle" >python</text>
<rect x="91" y="224" width="71" height="22" rx="4" fill="#0a0a0a" stroke="#262626"/><text x="126.5" y="239" font-family="ui-monospace, SFMono-Regular, Menlo, Consolas, 'Liberation Mono', monospace" font-size="11" font-weight="bold" fill="#e5e5e5" text-anchor="middle" >next.js</text>
<rect x="170" y="224" width="85" height="22" rx="4" fill="#0a0a0a" stroke="#262626"/><text x="212.5" y="239" font-family="ui-monospace, SFMono-Regular, Menlo, Consolas, 'Liberation Mono', monospace" font-size="11" font-weight="bold" fill="#e5e5e5" text-anchor="middle" >extension</text>
</svg>